<?xml version="1.0" standalone="no"?>
<!DOCTYPE svg PUBLIC "-//W3C//DTD SVG 20010904//EN"
 "http://www.w3.org/TR/2001/REC-SVG-20010904/DTD/svg10.dtd">
<svg version="1.0" xmlns="http://www.w3.org/2000/svg"
 width="260.000000pt" height="260.000000pt" viewBox="0 0 260.000000 260.000000"
 preserveAspectRatio="xMidYMid meet">
<metadata>
Created by potrace 1.14, written by Peter Selinger 2001-2017
</metadata>
<g transform="translate(0.000000,260.000000) scale(0.100000,-0.100000)"
fill="#000000" stroke="none">
<path d="M1285 2543 c-4 -21 -9 -45 -10 -53 -5 -37 -16 -93 -25 -132 -15 -69
-16 -68 48 -68 l59 0 -14 73 c-8 39 -16 81 -17 92 -14 92 -18 111 -25 118 -5
5 -12 -9 -16 -30z"/>
<path d="M1006 2460 c7 -139 13 -202 18 -208 8 -7 106 19 106 28 0 4 -26 64
-59 132 -32 67 -61 130 -65 138 -3 8 -3 -32 0 -90z"/>
<path d="M1539 2443 c-28 -60 -58 -122 -65 -139 l-13 -31 50 -11 c28 -7 54
-12 58 -12 4 0 9 21 10 48 1 26 4 63 6 82 9 85 15 170 11 170 -3 0 -28 -48
-57 -107z"/>
<path d="M720 2438 c0 -7 45 -137 60 -173 5 -11 16 -41 26 -67 9 -27 19 -48
21 -48 9 0 93 52 93 57 0 3 -39 51 -87 107 -107 125 -113 132 -113 124z"/>
<path d="M1809 2368 c-33 -40 -73 -86 -88 -103 -58 -66 -57 -63 -18 -80 20 -8
38 -19 42 -25 15 -24 33 -6 50 48 10 31 33 96 51 145 17 48 30 87 28 87 -1 0
-31 -33 -65 -72z"/>
<path d="M485 2249 c5 -8 23 -34 40 -59 18 -25 53 -76 80 -115 26 -38 49 -72
51 -74 1 -1 21 16 44 39 l41 41 -121 84 c-148 104 -145 102 -135 84z"/>
<path d="M2065 2228 c-27 -18 -52 -35 -55 -38 -3 -3 -38 -28 -77 -55 -40 -26
-73 -51 -73 -54 0 -3 18 -23 39 -44 l39 -38 68 98 c37 54 79 113 92 131 13 17
23 32 21 32 -2 0 -26 -15 -54 -32z"/>
<path d="M325 1994 c17 -14 52 -45 79 -68 27 -22 65 -56 85 -73 20 -18 39 -33
43 -33 7 0 61 90 56 95 -1 2 -55 22 -118 45 -63 22 -125 45 -138 50 -37 16
-39 12 -7 -16z"/>
<path d="M2150 1971 c-74 -27 -136 -53 -138 -59 -2 -6 8 -29 23 -52 29 -46 27
-47 110 25 32 28 79 67 104 89 25 21 48 40 50 42 11 10 -24 -1 -149 -45z"/>
<path d="M1227 1986 c-67 -40 -96 -100 -91 -191 1 -22 -2 -45 -7 -51 -9 -11
11 -114 22 -114 17 0 49 -75 49 -113 0 -49 1 -48 -163 -103 -56 -19 -112 -45
-125 -57 -39 -35 -64 -102 -62 -161 4 -79 4 -334 0 -396 -3 -55 -4 -55 -92
-140 -91 -85 -117 -105 -198 -152 l-46 -26 -49 23 c-28 14 -69 45 -92 71 -29
32 -44 43 -47 33 -3 -8 -14 -42 -26 -75 -17 -48 -19 -66 -11 -82 18 -33 13
-40 -32 -47 -23 -4 -50 -12 -60 -17 -20 -10 -12 -32 9 -24 8 3 14 2 14 -3 0
-4 14 -8 31 -9 17 0 36 -5 43 -11 7 -6 16 -8 19 -4 4 3 42 11 86 17 l79 12
-15 -23 c-18 -27 -19 -82 -3 -114 29 -55 88 -94 192 -128 152 -50 158 -52 184
-79 l23 -25 93 17 c105 19 163 22 228 12 25 -4 60 -10 78 -12 19 -3 75 0 125
7 111 14 155 14 227 -1 119 -24 128 -24 152 3 16 18 63 39 153 68 145 48 199
86 227 158 14 36 14 42 -2 79 l-18 41 21 -5 c12 -2 42 -7 67 -11 25 -3 53 -10
64 -15 13 -7 21 -6 26 2 4 6 21 12 39 12 17 1 34 5 37 9 2 5 11 6 19 2 9 -3
15 1 15 10 0 18 -12 23 -73 32 -41 6 -45 9 -37 25 13 23 13 62 1 92 -16 39
-24 62 -27 76 -5 26 -12 23 -50 -22 -21 -25 -53 -51 -71 -57 -18 -6 -33 -14
-33 -19 0 -4 -9 -10 -19 -13 -34 -8 -149 66 -249 161 -21 20 -53 49 -71 65
-17 15 -31 35 -32 45 -1 9 -3 37 -4 62 -6 75 -6 281 -1 350 9 132 -39 200
-170 240 -94 28 -166 58 -174 71 -18 27 15 134 43 145 7 2 14 18 15 34 1 16 7
41 12 55 6 17 6 25 -1 25 -5 0 -9 21 -9 48 3 106 -26 164 -101 202 -46 24 -89
23 -132 -4z"/>
<path d="M315 1676 c72 -36 135 -65 141 -65 10 -1 40 96 32 104 -4 4 -94 13
-218 20 l-85 5 130 -64z"/>
<path d="M2297 1734 c-2 -2 -144 -13 -174 -14 -13 0 -21 -5 -18 -12 2 -7 9
-32 15 -56 13 -52 5 -53 173 29 l122 59 -58 -2 c-32 -2 -59 -4 -60 -4z"/>
<path d="M285 1470 c-140 -27 -150 -34 -59 -46 22 -2 46 -6 54 -9 8 -2 29 -7
45 -9 17 -3 51 -10 78 -14 l47 -9 0 57 c0 39 -4 57 -12 56 -7 0 -76 -12 -153
-26z"/>
<path d="M2147 1442 c0 -31 1 -58 2 -58 1 -1 22 3 49 8 26 5 58 11 72 14 203
37 200 34 66 59 -66 13 -136 26 -155 29 l-36 5 2 -57z"/>
<path d="M420 1259 c-19 -10 -79 -39 -132 -64 -54 -25 -98 -48 -98 -50 0 -4
123 3 165 10 11 2 40 4 65 4 67 2 74 9 59 62 -7 24 -15 47 -18 50 -3 3 -22 -2
-41 -12z"/>
<path d="M2118 1224 c-11 -38 -12 -54 -4 -55 6 0 20 -2 30 -4 18 -3 99 -11
221 -20 l50 -3 -87 43 c-48 24 -111 54 -141 68 l-54 25 -15 -54z"/>
<path d="M503 1041 c-44 -37 -126 -106 -137 -116 -6 -6 -24 -20 -40 -33 -16
-12 -24 -22 -18 -22 9 0 272 90 280 95 5 4 -45 89 -54 92 -5 1 -19 -6 -31 -16z"/>
<path d="M2031 1015 c-13 -25 -22 -47 -20 -49 2 -2 58 -22 124 -46 66 -23 128
-47 138 -52 38 -20 13 12 -50 63 -37 30 -85 71 -107 91 -23 21 -46 38 -51 38
-6 0 -21 -20 -34 -45z"/>
<path d="M570 758 c-73 -105 -113 -169 -83 -133 4 6 49 37 98 70 50 33 105 70
122 83 l33 24 -41 39 c-22 21 -41 39 -42 39 -1 0 -40 -55 -87 -122z"/>
<path d="M1895 839 c-22 -23 -35 -43 -30 -45 6 -2 61 -40 124 -85 62 -44 115
-78 117 -76 2 2 -30 53 -72 113 -42 60 -79 114 -81 121 -8 20 -16 16 -58 -28z"/>
</g>
</svg>
